<svg width="344" height="124" viewBox="0 0 344 124" fill="none" xmlns="http://www.w3.org/2000/svg">
<path d="M49.6406 62.3516H22.2891V51.3125H49.6406C54.9375 51.3125 59.2266 50.4688 62.5078 48.7812C65.7891 47.0938 68.1797 44.75 69.6797 41.75C71.2266 38.75 72 35.3281 72 31.4844C72 27.9688 71.2266 24.6641 69.6797 21.5703C68.1797 18.4766 65.7891 15.9922 62.5078 14.1172C59.2266 12.1953 54.9375 11.2344 49.6406 11.2344H25.4531V102.5H11.8828V0.125H49.6406C57.375 0.125 63.9141 1.46094 69.2578 4.13281C74.6016 6.80469 78.6562 10.5078 81.4219 15.2422C84.1875 19.9297 85.5703 25.2969 85.5703 31.3438C85.5703 37.9062 84.1875 43.5078 81.4219 48.1484C78.6562 52.7891 74.6016 56.3281 69.2578 58.7656C63.9141 61.1562 57.375 62.3516 49.6406 62.3516ZM164.812 91.4609V102.5H113.625V91.4609H164.812ZM116.297 0.125V102.5H102.727V0.125H116.297ZM219.656 9.19531L185.766 102.5H171.914L210.938 0.125H219.867L219.656 9.19531ZM248.062 102.5L214.102 9.19531L213.891 0.125H222.82L261.984 102.5H248.062ZM246.305 64.6016V75.7109H188.789V64.6016H246.305ZM273.797 0.125L300.375 51.5234L327.023 0.125H342.422L307.125 64.25V102.5H293.555V64.25L258.258 0.125H273.797Z" fill="white"/>
<path d="M0 116.562H343.688V123.594H0V116.562Z" fill="white"/>
<a href="https://www.figma.com/proto/qWYXChXUR5guuxAgrqNm7Z/Audio-wave-Animation?page-id=0%3A1&#38;node-id=1%3A814&#38;viewport=241%2C48%2C0.12&#38;scaling=min-zoom&#38;starting-point-node-id=1%3A730">
<rect fill="black" fill-opacity="0" y="0.125" width="343.688" height="168.75"/>
</a>
</svg>
